<?xml version="1.0" encoding="UTF-8"?>
<svg width="360px" height="85px" viewBox="0 0 360 85" version="1.1" xmlns="http://www.w3.org/2000/svg">
    <title>ReturnSuite</title>
    <g stroke="none" stroke-width="1" fill="none" fill-rule="evenodd">
        <!--<rect id="background" fill="#3D3C4B" x="0" y="0" width="360" height="85"/>-->
        <g transform="translate(108.396484, 28.585938)" fill="#ffffff" opacity="0.898051671">
            <path d="M12.277832,20.5395508 L5.80615234,20.5395508 L5.80615234,33.4140625 L0,33.4140625 L0,0 L11.75,0 C15.6054687,0 18.5812174,0.864420573 20.6772461,2.59326172 C22.7732747,4.32210286 23.8212891,6.82356771 23.8212891,10.0976562 C23.8212891,12.3313802 23.2819824,14.2017415 22.2033691,15.7087402 C21.1247559,17.2157389 19.621582,18.3746745 17.6938477,19.1855469 L25.1982422,33.1157227 L25.1982422,33.4140625 L18.9790039,33.4140625 L12.277832,20.5395508 Z M5.80615234,15.8808594 L11.7729492,15.8808594 C13.7312826,15.8808594 15.2612305,15.3874512 16.362793,14.4006348 C17.4643555,13.4138184 18.0151367,12.0636393 18.0151367,10.3500977 C18.0151367,8.56005859 17.506429,7.17545573 16.4890137,6.19628906 C15.4715983,5.2171224 13.953125,4.71223958 11.9335938,4.68164062 L5.80615234,4.68164062 L5.80615234,15.8808594 Z"/>
            <path d="M38.0724577,33.8730469 C34.538278,33.8730469 31.6734505,32.7600098 29.4779752,30.5339355 C27.2825,28.3078613 26.1847623,25.3435872 26.1847623,21.6411133 L26.1847623,20.9526367 C26.1847623,18.4741211 26.6628711,16.2595215 27.6190885,14.3088379 C28.575306,12.3581543 29.9178353,10.839681 31.6466764,9.75341797 C33.3755176,8.66715495 35.3032519,8.12402344 37.4298795,8.12402344 C40.8110644,8.12402344 43.4234505,9.20263672 45.2670377,11.3598633 C47.110625,13.5170898 48.0324186,16.5693359 48.0324186,20.5166016 L48.0324186,22.765625 L31.8073209,22.765625 C31.9756152,24.8157552 32.6602669,26.4375 33.861276,27.6308594 C35.0622851,28.8242188 36.5731087,29.4208984 38.3937467,29.4208984 C40.9487597,29.4208984 43.0294889,28.3881836 44.6359342,26.3227539 L47.6422819,29.1914062 C46.6478157,30.6754557 45.3205859,31.8267415 43.6605924,32.6452637 C42.0005989,33.4637858 40.1378873,33.8730469 38.0724577,33.8730469 Z M37.4069303,12.5991211 C35.8769824,12.5991211 34.6415495,13.1346029 33.7006315,14.2055664 C32.7597135,15.2765299 32.159209,16.7682292 31.8991178,18.6806641 L42.5246061,18.6806641 L42.5246061,18.2675781 C42.4022103,16.4010417 41.9049772,14.9896647 41.0329069,14.0334473 C40.1608366,13.0772298 38.9521777,12.5991211 37.4069303,12.5991211 Z"/>
            <path d="M59.6937434,2.54736328 L59.6937434,8.58300781 L64.0770442,8.58300781 L64.0770442,12.7138672 L59.6937434,12.7138672 L59.6937434,26.5751953 C59.6937434,27.523763 59.8811621,28.2084147 60.2559993,28.6291504 C60.6308365,29.0498861 61.3001887,29.2602539 62.2640559,29.2602539 C62.9066341,29.2602539 63.5568619,29.1837565 64.2147395,29.0307617 L64.2147395,33.3452148 C62.9448828,33.6971029 61.7209244,33.8730469 60.5428645,33.8730469 C56.2590104,33.8730469 54.1170833,31.5092773 54.1170833,26.7817383 L54.1170833,12.7138672 L50.0321223,12.7138672 L50.0321223,8.58300781 L54.1170833,8.58300781 L54.1170833,2.54736328 L59.6937434,2.54736328 Z"/>
            <path d="M83.7246972,30.9814453 C82.0876529,32.9091797 79.7621321,33.8730469 76.7481347,33.8730469 C74.0554264,33.8730469 72.0167708,33.0851237 70.6321679,31.5092773 C69.247565,29.933431 68.5552636,27.6538086 68.5552636,24.6704102 L68.5552636,8.58300781 L74.1319237,8.58300781 L74.1319237,24.6015625 C74.1319237,27.7532552 75.4400292,29.3291016 78.0562402,29.3291016 C80.764248,29.3291016 82.5925357,28.3575846 83.5411034,26.4145508 L83.5411034,8.58300781 L89.1177636,8.58300781 L89.1177636,33.4140625 L83.8623925,33.4140625 L83.7246972,30.9814453 Z"/>
            <path d="M107.145788,13.6777344 C106.411413,13.5553385 105.654088,13.4941406 104.873815,13.4941406 C102.318802,13.4941406 100.597611,14.4733073 99.7102408,16.4316406 L99.7102408,33.4140625 L94.1335806,33.4140625 L94.1335806,8.58300781 L99.4577994,8.58300781 L99.5954947,11.3598633 C100.941849,9.20263672 102.808385,8.12402344 105.195104,8.12402344 C105.990677,8.12402344 106.648555,8.23111979 107.168737,8.4453125 L107.145788,13.6777344 Z"/>
            <path d="M116.190902,8.58300781 L116.351546,11.4516602 C118.187484,9.23323568 120.597152,8.12402344 123.58055,8.12402344 C128.751774,8.12402344 131.383284,11.0844727 131.475081,17.0053711 L131.475081,33.4140625 L125.898421,33.4140625 L125.898421,17.3266602 C125.898421,15.7508138 125.558008,14.5842285 124.877181,13.8269043 C124.196354,13.0695801 123.083317,12.690918 121.53807,12.690918 C119.289046,12.690918 117.613753,13.7083333 116.512191,15.7431641 L116.512191,33.4140625 L110.93553,33.4140625 L110.93553,8.58300781 L116.190902,8.58300781 Z"/>
            <path d="M157.28582,25.3730469 C157.28582,23.5611979 156.649427,22.1274414 155.37664,21.0717773 C154.103854,20.0161133 151.775403,19.0128581 148.391289,18.0620117 C145.007174,17.1111654 142.536471,16.0742188 140.97918,14.9511719 C138.763034,13.3639323 137.654961,11.2825521 137.654961,8.70703125 C137.654961,6.20638021 138.68442,4.17366536 140.74334,2.60888672 C142.802259,1.04410807 145.433932,0.26171875 148.638359,0.26171875 C150.809583,0.26171875 152.752454,0.680989583 154.466972,1.51953125 C156.181491,2.35807292 157.51043,3.52604167 158.453789,5.0234375 C159.397148,6.52083333 159.868828,8.19042969 159.868828,10.0322266 L157.083672,10.0322266 C157.083672,7.80110677 156.32,6.00797526 154.792656,4.65283203 C153.265312,3.2976888 151.21388,2.62011719 148.638359,2.62011719 C146.137708,2.62011719 144.146172,3.17789714 142.66375,4.29345703 C141.181328,5.40901693 140.440117,6.86523438 140.440117,8.66210938 C140.440117,10.3242188 141.106458,11.679362 142.43914,12.7275391 C143.771823,13.7757161 145.905612,14.7003581 148.840508,15.5014648 C151.775403,16.3025716 153.999036,17.1336263 155.511406,17.9946289 C157.023776,18.8556315 158.161797,19.8850911 158.925469,21.0830078 C159.68914,22.2809245 160.070976,23.6959635 160.070976,25.328125 C160.070976,27.9036458 159.041517,29.9700521 156.982597,31.5273438 C154.923678,33.0846354 152.209648,33.8632812 148.840508,33.8632812 C146.534518,33.8632812 144.419446,33.4514974 142.495293,32.6279297 C140.571139,31.804362 139.111178,30.6513672 138.11541,29.1689453 C137.119642,27.6865234 136.621758,25.9869792 136.621758,24.0703125 L139.384453,24.0703125 C139.384453,26.3763021 140.245456,28.195638 141.967461,29.5283203 C143.689466,30.8610026 145.980482,31.5273438 148.840508,31.5273438 C151.386081,31.5273438 153.430026,30.9658203 154.972344,29.8427734 C156.514661,28.7197266 157.28582,27.2298177 157.28582,25.3730469 Z"/>
            <path d="M180.562745,30.3369141 C178.945558,32.6878255 176.36255,33.8632812 172.813722,33.8632812 C170.223227,33.8632812 168.254151,33.1108398 166.906495,31.605957 C165.558839,30.1010742 164.870037,27.8736979 164.840089,24.9238281 L164.840089,9.11132812 L167.51294,9.11132812 L167.51294,24.5869141 C167.51294,29.2138672 169.384685,31.5273438 173.128175,31.5273438 C177.021404,31.5273438 179.48462,29.9176432 180.517823,26.6982422 L180.517823,9.11132812 L183.213136,9.11132812 L183.213136,33.4140625 L180.607667,33.4140625 L180.562745,30.3369141 Z"/>
            <path d="M193.743967,33.4140625 L191.048654,33.4140625 L191.048654,9.11132812 L193.743967,9.11132812 L193.743967,33.4140625 Z M190.576975,2.08105469 C190.576975,1.5719401 190.741688,1.1414388 191.071115,0.789550781 C191.400542,0.43766276 191.849761,0.26171875 192.418772,0.26171875 C192.987782,0.26171875 193.440744,0.43766276 193.777658,0.789550781 C194.114572,1.1414388 194.283029,1.5719401 194.283029,2.08105469 C194.283029,2.59016927 194.114572,3.01692708 193.777658,3.36132812 C193.440744,3.70572917 192.987782,3.87792969 192.418772,3.87792969 C191.849761,3.87792969 191.400542,3.70572917 191.071115,3.36132812 C190.741688,3.01692708 190.576975,2.59016927 190.576975,2.08105469 Z"/>
            <path d="M206.75722,2.88964844 L206.75722,9.11132812 L211.78847,9.11132812 L211.78847,11.3125 L206.75722,11.3125 L206.75722,27.5068359 C206.75722,28.8544922 207.000547,29.8577474 207.4872,30.5166016 C207.973854,31.1754557 208.786191,31.5048828 209.924212,31.5048828 C210.373431,31.5048828 211.099668,31.430013 212.102923,31.2802734 L212.215228,33.4814453 C211.511452,33.7360026 210.553118,33.8632812 209.340228,33.8632812 C207.498431,33.8632812 206.158262,33.3279622 205.31972,32.2573242 C204.481178,31.1866862 204.061907,29.6106771 204.061907,27.5292969 L204.061907,11.3125 L199.592181,11.3125 L199.592181,9.11132812 L204.061907,9.11132812 L204.061907,2.88964844 L206.75722,2.88964844 Z"/>
            <path d="M227.305629,33.8632812 C225.239223,33.8632812 223.371222,33.3541667 221.701625,32.3359375 C220.032029,31.3177083 218.733038,29.8989258 217.804653,28.0795898 C216.876267,26.2602539 216.412075,24.2200521 216.412075,21.9589844 L216.412075,20.9931641 C216.412075,18.6572266 216.865037,16.5533854 217.770961,14.6816406 C218.676886,12.8098958 219.938442,11.3387044 221.555629,10.2680664 C223.172817,9.19742839 224.92477,8.66210938 226.811489,8.66210938 C229.761358,8.66210938 232.101039,9.66910807 233.830532,11.6831055 C235.560024,13.6971029 236.42477,16.4485677 236.42477,19.9375 L236.42477,21.4423828 L219.084926,21.4423828 L219.084926,21.9589844 C219.084926,24.7141927 219.874802,27.0089518 221.454555,28.8432617 C223.034308,30.6775716 225.022101,31.5947266 227.417934,31.5947266 C228.855434,31.5947266 230.124477,31.3326823 231.225063,30.8085938 C232.325649,30.2845052 233.325161,29.4459635 234.223598,28.2929688 L235.908168,29.5732422 C233.931606,32.4332682 231.064093,33.8632812 227.305629,33.8632812 Z M226.811489,10.953125 C224.790004,10.953125 223.086717,11.6943359 221.701625,13.1767578 C220.316534,14.6591797 219.474249,16.6507161 219.17477,19.1513672 L233.751918,19.1513672 L233.751918,18.859375 C233.677049,16.5234375 233.010707,14.6217448 231.752895,13.1542969 C230.495082,11.686849 228.847947,10.953125 226.811489,10.953125 Z"/>
        </g>
        <path d="M13.1984921,71.1247245 C15.9314438,68.3601518 20.9827971,64.235118 28.3525518,58.7496228 C41.074663,49.2802332 43.4988624,13.0679563 52.8505498,13.0679563 C63.6352342,13.0679563 55.9249113,31.7651708 79.904693,56.6291837 C90.7719359,67.8971456 97.1314828,72.7101447 98.9833338,71.068181 L13.1984921,71.1247245 Z" fill="#ffffff" opacity="0.797354562"/>
        <path d="M13.1984921,71.0654094 C23.7714253,30.1823504 33.2873702,17.8595994 41.7463268,34.0971564 C44.0804163,38.5776038 51.6705215,48.3871951 62.8749336,58.345263 C68.5193868,63.3618446 80.5555202,67.6018934 98.9833338,71.0654094 L13.1984921,71.0654094 Z" fill="#ffffff" opacity="0.796340216"/>
        <line x1="30.5" y1="11.5" x2="30.5" y2="79.5" stroke="#ffffff" stroke-width="3" stroke-linecap="square" stroke-dasharray="4,6"/>
    </g>
</svg>
