<?xml version="1.0" encoding="UTF-8"?>
<svg width="389px" height="389px" viewBox="0 0 389 389" version="1.1" xmlns="http://www.w3.org/2000/svg">
    <title>ReturnSuite Logo</title>
    <g stroke="none" stroke-width="1" fill="none" fill-rule="evenodd">
        <!--<rect id="background" fill="#3D3C4B" x="0" y="0" width="389" height="389"/>-->
        <g id="icon" transform="translate(29.000000, 36.000000)">
            <path d="M0,233 C10.7179868,222.141733 30.5281928,205.941403 59.4306179,184.39901 C109.323712,147.211244 118.830845,5 155.505939,5 C197.800906,5 179.00684,88.3075348 276.478993,184.39901 C310.266484,217.707907 329.339846,232.406137 334.571039,232.286759 C335.142987,232.273707 335.142987,232.433127 334.571039,232.76502 L0,233 Z" id="Path-14" fill-opacity="0.96" fill="#FFFFFF" opacity="0.797354562"/>
            <path d="M0,232 C41.4632797,71.7910823 78.7814276,23.501775 111.954444,87.132078 C121.107912,104.689659 150.873602,143.130618 194.813317,182.153415 C216.948853,201.811951 263.01108,218.42748 333,232 L0,232 Z" id="Path-13" fill-opacity="0.78" fill="#FFFFFF" opacity="0.796340216"/>
            <line x1="68" y1="1.1235457e-13" x2="68" y2="253" id="Line" stroke="#FFFFFF" stroke-width="8" stroke-linecap="square" stroke-dasharray="16,24"/>
        </g>
        <g id="ReturnSuite" transform="translate(24.000000, 305.000000)" fill="#FFFFFF" fill-rule="nonzero" opacity="0.898051671">
            <path d="M18.0282332,29.5054945 L8.52550091,29.5054945 L8.52550091,48 L0,48 L0,0 L17.2531876,0 C22.9143898,0 27.2838494,1.24175824 30.3615665,3.72527473 C33.4392835,6.20879121 34.9781421,9.8021978 34.9781421,14.5054945 C34.9781421,17.7142857 34.1862477,20.4010989 32.602459,22.5659341 C31.0186703,24.7307692 28.8114754,26.3956044 25.9808743,27.5604396 L37,47.5714286 L37,48 L27.8679417,48 L18.0282332,29.5054945 Z M8.52550091,22.8131868 L17.2868852,22.8131868 C20.1624165,22.8131868 22.4089253,22.1043956 24.0264117,20.6868132 C25.643898,19.2692308 26.4526412,17.3296703 26.4526412,14.8681319 C26.4526412,12.2967033 25.705677,10.3076923 24.2117486,8.9010989 C22.7178203,7.49450549 20.4881603,6.76923077 17.5227687,6.72527473 L8.52550091,6.72527473 L8.52550091,22.8131868 Z" id="Shape"/>
            <path d="M54.8676471,50 C49.8529412,50 45.7879902,48.4006239 42.6727941,45.2018717 C39.557598,42.0031194 38,37.7436126 38,32.4233512 L38,31.4340463 C38,27.872549 38.6783964,24.6902852 40.0351891,21.8872549 C41.3919818,19.0842246 43.2969188,16.9022579 45.75,15.3413547 C48.2030812,13.7804516 50.9383754,13 53.9558824,13 C58.7535014,13 62.4602591,14.5499109 65.0761555,17.6497326 C67.6920518,20.7495544 69,25.1354724 69,30.8074866 L69,34.0392157 L45.9779412,34.0392157 C46.2167367,36.9851456 47.1882003,39.315508 48.8923319,41.030303 C50.5964636,42.745098 52.7401961,43.6024955 55.3235294,43.6024955 C58.9488796,43.6024955 61.9012605,42.1185383 64.1806723,39.1506239 L68.4464286,43.2727273 C67.0353641,45.4052288 65.1521359,47.0595663 62.7967437,48.2357398 C60.4413515,49.4119133 57.7983193,50 54.8676471,50 Z M53.9233193,19.4304813 C51.752451,19.4304813 49.9994748,20.1999406 48.6643908,21.7388592 C47.3293067,23.2777778 46.4772409,25.4212715 46.1081933,28.1693405 L61.1848739,28.1693405 L61.1848739,27.5757576 C61.0112045,24.8936423 60.3056723,22.8655674 59.0682773,21.491533 C57.8308824,20.1174985 56.1158964,19.4304813 53.9233193,19.4304813 Z" id="Shape"/>
            <path d="M85.6245955,5 L85.6245955,13.6703297 L91.8058252,13.6703297 L91.8058252,19.6043956 L85.6245955,19.6043956 L85.6245955,39.5164835 C85.6245955,40.8791209 85.8888889,41.8626374 86.4174757,42.467033 C86.9460626,43.0714286 87.8899676,43.3736264 89.2491909,43.3736264 C90.1553398,43.3736264 91.0722762,43.2637363 92,43.043956 L92,49.2417582 C90.2092772,49.7472527 88.4832794,50 86.8220065,50 C80.781014,50 77.7605178,46.6043956 77.7605178,39.8131868 L77.7605178,19.6043956 L72,19.6043956 L72,13.6703297 L77.7605178,13.6703297 L77.7605178,5 L85.6245955,5 Z" id="Path"/>
            <path d="M120.393973,45.76951 C118.085193,48.5898367 114.805432,50 110.554688,50 C106.757068,50 103.881882,48.8472474 101.929129,46.5417423 C99.9763765,44.2362371 99,40.9010889 99,36.5362976 L99,13 L106.864955,13 L106.864955,36.4355717 C106.864955,41.046582 108.709821,43.3520871 112.399554,43.3520871 C116.21875,43.3520871 118.797247,41.930732 120.135045,39.0880218 L120.135045,13 L128,13 L128,49.3284936 L120.58817,49.3284936 L120.393973,45.76951 Z" id="Path"/>
            <path d="M153.96831,20.1252269 C152.954225,19.9461585 151.908451,19.8566243 150.830986,19.8566243 C147.302817,19.8566243 144.926056,21.2891712 143.700704,24.154265 L143.700704,49 L136,49 L136,12.6715064 L143.352113,12.6715064 L143.542254,16.7341198 C145.401408,13.5780399 147.978873,12 151.274648,12 C152.373239,12 153.28169,12.1566848 154,12.4700544 L153.96831,20.1252269 Z" id="Path"/>
            <path d="M167.420112,12.6715064 L167.646927,16.8684211 C170.239106,13.622807 173.641341,12 177.853631,12 C185.154935,12 188.870391,16.331216 189,24.9936479 L189,49 L181.126257,49 L181.126257,25.4637024 C181.126257,23.1581972 180.645624,21.4514519 179.684358,20.3434664 C178.723091,19.2354809 177.151583,18.6814882 174.969832,18.6814882 C171.794413,18.6814882 169.42905,20.169994 167.873743,23.1470054 L167.873743,49 L160,49 L160,12.6715064 L167.420112,12.6715064 Z" id="Path"/>
            <path d="M226.08046,37.618984 C226.08046,34.9768271 225.184866,32.8860294 223.393678,31.3465909 C221.60249,29.8071524 218.32567,28.3441399 213.563218,26.9575535 C208.800766,25.570967 205.323755,24.0588235 203.132184,22.421123 C200.01341,20.1065062 198.454023,17.0713012 198.454023,13.315508 C198.454023,9.66889483 199.902778,6.70465686 202.800287,4.42279412 C205.697797,2.14093137 209.401341,1 213.91092,1 C216.966475,1 219.70067,1.6114082 222.113506,2.8342246 C224.526341,4.057041 226.396552,5.76024955 227.724138,7.94385027 C229.051724,10.127451 229.715517,12.5621658 229.715517,15.2479947 L225.795977,15.2479947 C225.795977,11.9944296 224.721264,9.37956774 222.571839,7.40340909 C220.422414,5.42725045 217.535441,4.43917112 213.91092,4.43917112 C210.391762,4.43917112 207.58908,5.25256239 205.502874,6.87934492 C203.416667,8.50612745 202.373563,10.6296791 202.373563,13.25 C202.373563,15.6737968 203.311303,17.6499554 205.186782,19.1784759 C207.062261,20.7069964 210.065134,22.0553699 214.195402,23.2235963 C218.32567,24.3918226 221.454981,25.603721 223.583333,26.8592914 C225.711686,28.1148619 227.313218,29.6160873 228.387931,31.3629679 C229.462644,33.1098485 230,35.1733512 230,37.5534759 C230,41.3092692 228.551245,44.3226381 225.653736,46.5935829 C222.756226,48.8645276 218.936782,50 214.195402,50 C210.950192,50 207.973659,49.3995098 205.265805,48.1985294 C202.55795,46.997549 200.503352,45.3161765 199.102011,43.1544118 C197.70067,40.9926471 197,38.5142602 197,35.7192513 L200.887931,35.7192513 C200.887931,39.0819964 202.099617,41.7350713 204.522989,43.6784759 C206.94636,45.6218806 210.170498,46.5935829 214.195402,46.5935829 C217.777778,46.5935829 220.654215,45.7747326 222.824713,44.1370321 C224.995211,42.4993316 226.08046,40.3266488 226.08046,37.618984 Z" id="Path"/>
            <path d="M260.249389,44.8711434 C257.96088,48.2903811 254.305623,50 249.283619,50 C245.617767,50 242.831296,48.9056261 240.924205,46.7168784 C239.017115,44.5281307 238.04238,41.2885662 238,36.9981851 L238,14 L241.782396,14 L241.782396,36.508167 C241.782396,43.2377495 244.431133,46.6025408 249.728606,46.6025408 C255.237979,46.6025408 258.723716,44.261343 260.185819,39.5789474 L260.185819,14 L264,14 L264,49.3466425 L260.312958,49.3466425 L260.249389,44.8711434 Z" id="Path"/>
            <path d="M278.272727,48 L274.636364,48 L274.636364,12.8130081 L278.272727,12.8130081 L278.272727,48 Z M274,2.63414634 C274,1.89701897 274.222222,1.27371274 274.666667,0.764227642 C275.111111,0.254742547 275.717172,0 276.484848,0 C277.252525,0 277.863636,0.254742547 278.318182,0.764227642 C278.772727,1.27371274 279,1.89701897 279,2.63414634 C279,3.37127371 278.772727,3.98915989 278.318182,4.48780488 C277.863636,4.98644986 277.252525,5.23577236 276.484848,5.23577236 C275.717172,5.23577236 275.111111,4.98644986 274.666667,4.48780488 C274.222222,3.98915989 274,3.37127371 274,2.63414634 Z" id="Shape"/>
            <path d="M297.217082,5 L297.217082,14.0391588 L304.391459,14.0391588 L304.391459,17.2371284 L297.217082,17.2371284 L297.217082,40.7650471 C297.217082,42.7229877 297.564057,44.1805656 298.258007,45.137781 C298.951957,46.0949964 300.11032,46.5736041 301.733096,46.5736041 C302.373665,46.5736041 303.409253,46.4648296 304.839858,46.2472806 L305,49.4452502 C303.996441,49.8150834 302.629893,50 300.900356,50 C298.274021,50 296.362989,49.2222625 295.16726,47.6667875 C293.97153,46.1113125 293.373665,43.8216099 293.373665,40.7976795 L293.373665,17.2371284 L287,17.2371284 L287,14.0391588 L293.373665,14.0391588 L293.373665,5 L297.217082,5 Z" id="Path"/>
            <path d="M327.241302,50 C324.350168,50 321.736626,49.2525253 319.400673,47.7575758 C317.064721,46.2626263 315.247288,44.17959 313.948373,41.508467 C312.649458,38.837344 312,35.8419489 312,32.5222816 L312,31.1042781 C312,27.6746881 312.633745,24.5858586 313.901235,21.8377897 C315.168724,19.0897207 316.933782,16.9297386 319.196409,15.3578431 C321.459035,13.7859477 323.910213,13 326.549944,13 C330.677142,13 333.950617,14.4784611 336.37037,17.4353832 C338.790123,20.3923054 340,24.4319667 340,29.5543672 L340,31.7638146 L315.739618,31.7638146 L315.739618,32.5222816 C315.739618,36.5674391 316.844744,39.9365716 319.054994,42.6296791 C321.265245,45.3227867 324.04639,46.6693405 327.398429,46.6693405 C329.409652,46.6693405 331.185185,46.2846108 332.725028,45.5151515 C334.264871,44.7456922 335.6633,43.5145573 336.920314,41.8217469 L339.277217,43.701426 C336.511785,47.9004753 332.499813,50 327.241302,50 Z M326.549944,16.3636364 C323.721661,16.3636364 321.338571,17.4518717 319.400673,19.6283422 C317.462776,21.8048128 316.284325,24.7287582 315.86532,28.4001783 L336.260382,28.4001783 L336.260382,27.9714795 C336.15563,24.5418895 335.223345,21.7498515 333.463524,19.5953654 C331.703704,17.4408794 329.399177,16.3636364 326.549944,16.3636364 Z" id="Shape"/>
        </g>
    </g>
</svg>
