<?xml version="1.0" encoding="UTF-8"?>
<svg width="146px" height="123px" viewBox="0 0 146 123" version="1.1" xmlns="http://www.w3.org/2000/svg">
    <g stroke="none" stroke-width="1" fill="none" fill-rule="evenodd">
        <path d="M0,102 C4.67112261,97.237602 13.3048243,90.1321941 25.9011051,80.6837763 C47.6455582,64.3733526 51.7889655,2 67.7727377,2 C86.2057682,2 78.0149212,38.5383924 120.495322,80.6837763 C135.220617,95.2929415 143.533187,101.739534 145.81305,101.687175 C146.062317,101.68145 146.062317,101.751372 145.81305,101.896938 L0,102 Z" fill="#188BD6" opacity="0.797354562"/>
        <path d="M0,102 C18.1790956,32.1414603 34.5408061,11.0850763 49.0851315,38.8308479 C53.0983636,46.48677 66.1487865,63.2488161 85.4136465,80.2645703 C95.1187162,88.8366066 115.314167,96.0817499 146,102 L0,102 Z" fill="#188BD6" opacity="0.796340216"/>
        <line x1="29.5" y1="0" x2="29.5" y2="117" stroke="#383B40" stroke-width="5" stroke-linecap="square" stroke-dasharray="9,10"/>
    </g>
</svg>
